# xmcd
#
# Track frame offsets:
#	150
#	21562
#	36935
#	51817
#	65476
#	81835
#	101114
#	119359
#	136625
#	149913
#	164927
#	183583
#	200319
#	216533
#
# Disc length: 3050 seconds
#
# Revision: 1
# Processed by: cddbd v1.5.2PL0 Copyright (c) Steve Scherf et al.
# Submitted via: audiograbber 1.83.01
#
DISCID=e30be80e
DTITLE=Erick Hovey - Recycled Souls
DYEAR=2009
DGENRE=Blues
TTITLE0=When Will I See You Again
TTITLE1=Hazy
TTITLE2=Half Dead
TTITLE3=What You Doin Here
TTITLE4=Ain't Done With You
TTITLE5=could Have Told Me
TTITLE6=Here Again
TTITLE7=Didn't I Pray
TTITLE8=Sweet Fire Rain
TTITLE9=Can't See the Page
TTITLE10=Thousand Times
TTITLE11=Whatever It Is
TTITLE12=Feels So Good Hurts So Bad
TTITLE13=Ask the Stars
EXTD=
EXTT0=
EXTT1=
EXTT2=
EXTT3=
EXTT4=
EXTT5=
EXTT6=
EXTT7=
EXTT8=
EXTT9=
EXTT10=
EXTT11=
EXTT12=
EXTT13=
PLAYORDER=
